<svg width="166" height="22" viewBox="0 0 166 22" fill="none" xmlns="http://www.w3.org/2000/svg">
<path d="M142.821 21.8078L149.525 11.112L143.032 0.192104H150.563L154.41 8.39007L158.274 0.192104H165.789L159.28 11.112L166 21.8078H158.485L154.41 13.834L150.352 21.8078H142.821Z" fill="black"/>
<path d="M118.935 21.8078L125.752 0.192104H135.005L141.838 21.8078H135.086L133.803 16.8923H126.97L125.687 21.8078H118.935ZM128.025 12.6652H132.765L130.427 3.93883H130.362L128.025 12.6652Z" fill="black"/>
<path d="M92.8519 21.8078V0.192104H103.403L111.145 18.7656H110.188L110.253 0.192104H116.778V21.8078H106.324L98.5817 3.15426H99.3609V21.8078H92.8519Z" fill="black"/>
<path d="M70.533 21.8078V0.192104H84.0055C86.5809 0.192104 88.2961 0.859256 89.151 2.19356C90.0167 3.52786 90.4496 5.12369 90.4496 6.98104C90.4496 8.81704 89.9951 10.3648 89.0861 11.6244C88.1771 12.8733 86.3916 13.4978 83.7295 13.4978H77.1069V21.8078H70.533ZM83.8107 21.8078L79.0223 11.8166L85.515 11.5764L90.9203 21.8078H83.8107ZM77.1069 9.55892H81.8142C82.5933 9.55892 83.129 9.35076 83.4211 8.93446C83.7241 8.51816 83.8756 7.89904 83.8756 7.07711C83.8756 6.25518 83.7241 5.63073 83.4211 5.20375C83.129 4.77677 82.5933 4.56328 81.8142 4.56328H77.1069V9.55892Z" fill="black"/>
<path d="M57.2407 21.9359C53.7021 21.9359 51.0725 21.3595 49.3519 20.2067C47.6314 19.0538 46.7711 17.1217 46.7711 14.4104V0.192104H53.3288V13.738C53.3288 15.0936 53.6263 16.0703 54.2215 16.6681C54.8275 17.2659 55.8339 17.5647 57.2407 17.5647C58.6474 17.5647 59.6538 17.2712 60.2598 16.6841C60.8658 16.0863 61.1688 15.1043 61.1688 13.738V0.192104H67.7265V14.4104C67.7265 17.1217 66.8662 19.0538 65.1456 20.2067C63.425 21.3595 60.7901 21.9359 57.2407 21.9359Z" fill="black"/>
<path d="M33.6552 22C29.4674 22 26.5943 21.0553 25.0361 19.1659C23.4778 17.2659 22.6987 14.5439 22.6987 11C22.6987 7.46676 23.4778 4.75012 25.0361 2.85007C26.5943 0.950025 29.4674 0 33.6552 0C37.8431 0 40.7161 0.950025 42.2744 2.85007C43.8327 4.75012 44.6118 7.46676 44.6118 11C44.6118 14.5439 43.8327 17.2659 42.2744 19.1659C40.7161 21.0553 37.8431 22 33.6552 22ZM33.6552 17.6128C35.0079 17.6128 36.0846 17.2712 36.8854 16.5881C37.6862 15.8942 38.0866 14.0315 38.0866 11C38.0866 7.92577 37.6862 6.05774 36.8854 5.39592C36.0846 4.72344 35.0079 4.38719 33.6552 4.38719C32.3026 4.38719 31.2259 4.72344 30.4251 5.39592C29.6243 6.05774 29.2239 7.92577 29.2239 11C29.2239 14.0315 29.6243 15.8942 30.4251 16.5881C31.2259 17.2712 32.3026 17.6128 33.6552 17.6128Z" fill="black"/>
<path d="M10.0476 22C6.72544 22 4.22031 21.4449 2.53218 20.3348C0.844061 19.2246 0 17.5114 0 15.195V12.1208H6.54147V14.4425C6.54147 15.5099 6.78495 16.3158 7.27191 16.8602C7.75887 17.4046 8.67868 17.6768 10.0313 17.6768C11.3948 17.6768 12.3309 17.426 12.8395 16.9243C13.3481 16.4119 13.6024 15.6327 13.6024 14.5866V0.192104H20.1438V15.5153C20.1438 17.6501 19.3052 19.2673 17.6279 20.3668C15.9506 21.4556 13.4238 22 10.0476 22Z" fill="black"/>
</svg>
